<svg xmlns="http://www.w3.org/2000/svg" viewBox="0 0 512 512">
  <defs>
    <linearGradient id="bg" x1="0" y1="0" x2="1" y2="1">
      <stop offset="0%" stop-color="#5c6470"/>
      <stop offset="100%" stop-color="#2b3037"/>
    </linearGradient>
    <linearGradient id="knob" x1="0.15" y1="0.1" x2="0.85" y2="0.9">
      <stop offset="0%" stop-color="#d8dee6"/>
      <stop offset="100%" stop-color="#8f98a4"/>
    </linearGradient>
    <linearGradient id="rim" x1="0" y1="0" x2="1" y2="1">
      <stop offset="0%" stop-color="#1b1f24"/>
      <stop offset="100%" stop-color="#4f5863"/>
    </linearGradient>
  </defs>
  <rect x="32" y="32" width="448" height="448" rx="108" fill="url(#bg)"/>
  <circle cx="256" cy="256" r="142" fill="none" stroke="#86aab0" stroke-width="18" opacity="0.95"/>
  <circle cx="256" cy="256" r="124" fill="url(#rim)"/>
  <g opacity="0.2" stroke="#eef3f7" stroke-width="8" stroke-linecap="round">
    <path d="M256 138v26"/>
    <path d="M197 154l10 24"/>
    <path d="M154 197l24 10"/>
    <path d="M138 256h26"/>
    <path d="M154 315l24-10"/>
    <path d="M197 358l10-24"/>
    <path d="M256 374v-26"/>
    <path d="M315 358l-10-24"/>
    <path d="M358 315l-24-10"/>
    <path d="M374 256h-26"/>
    <path d="M358 197l-24 10"/>
    <path d="M315 154l-10 24"/>
  </g>
  <circle cx="256" cy="256" r="102" fill="url(#knob)"/>
  <circle cx="256" cy="256" r="88" fill="#9ba5b1" opacity="0.55"/>
  <path d="M256 256L318 182" stroke="#f8fbff" stroke-width="16" stroke-linecap="round"/>
  <circle cx="256" cy="256" r="18" fill="#f8fbff"/>
</svg>
